<svg width="64" height="64" viewBox="0 0 1024 1024" xmlns="http://www.w3.org/2000/svg">
  <path d="M255.1 797.4c-0.6-0.6-1.2-1.1-1.8-1.7 0.6 0.6 1.2 1.1 1.8 1.7zM362.5 158.2c-0.9 0.4-1.7 0.8-2.6 1.1 45.1-19.5 94.6-30.5 146.7-31.2-49.9 0.6-98.4 10.7-144.1 30.1zM661.5 865.8c0.9-0.4 1.7-0.8 2.6-1.1-45.1 19.5-94.6 30.5-146.7 31.2 49.9-0.6 98.4-10.7 144.1-30.1z" fill="#2C69B0"/>
  <path d="M702.6 490.9c0.8 6.9 1.2 14 1.2 21.1 0 105.9-85.9 191.8-191.8 191.8S320.2 617.9 320.2 512 406.1 320.2 512 320.2c7.2 0 14.2 0.4 21.2 1.2l21.2-191.1c-12.2-1.3-24.6-2.1-37.1-2.3H506.7c-52.1 0.7-101.6 11.8-146.7 31.2l-3.3 1.5c-1.8 0.8-3.7 1.6-5.5 2.5-0.8 0.4-1.7 0.8-2.5 1.2-2.2 1-4.4 2.1-6.6 3.2-0.4 0.2-0.7 0.4-1.1 0.5-24.8 12.3-48 27.3-69.3 44.4-0.1 0.1-0.3 0.2-0.4 0.3-1.9 1.5-3.8 3.1-5.7 4.7-0.8 0.7-1.6 1.3-2.4 2-1.2 1-2.5 2.1-3.7 3.2-1.4 1.2-2.8 2.5-4.3 3.8-0.6 0.6-1.2 1.1-1.8 1.7-1.9 1.8-3.8 3.5-5.7 5.3l-0.5 0.5c-2.2 2.1-4.4 4.2-6.5 6.4s-4.3 4.3-6.4 6.5l-0.5 0.5c-1.8 1.9-3.6 3.8-5.3 5.7-0.6 0.6-1.1 1.2-1.7 1.8-1.3 1.4-2.5 2.8-3.8 4.3-1.1 1.2-2.1 2.4-3.2 3.7-0.7 0.8-1.4 1.6-2 2.4-1.6 1.9-3.1 3.8-4.7 5.7-0.1 0.1-0.2 0.3-0.4 0.4-17.2 21.4-32.1 44.6-44.4 69.3-0.2 0.4-0.4 0.7-0.5 1.1-1.1 2.2-2.2 4.4-3.2 6.6-0.4 0.8-0.8 1.7-1.2 2.5-0.8 1.8-1.7 3.7-2.5 5.5l-1.5 3.3c-19.5 45.1-30.5 94.6-31.2 146.7V517c0.7 52.1 11.8 101.6 31.2 146.7l1.5 3.3c0.8 1.8 1.6 3.7 2.5 5.5 0.4 0.8 0.8 1.7 1.2 2.5 1 2.2 2.1 4.4 3.2 6.6 0.2 0.4 0.4 0.7 0.5 1.1 12.3 24.7 27.3 48 44.4 69.3 0.1 0.1 0.2 0.3 0.4 0.4 1.5 1.9 3.1 3.8 4.7 5.7 0.7 0.8 1.3 1.6 2 2.4 1 1.2 2.1 2.5 3.2 3.7 1.2 1.4 2.5 2.8 3.8 4.3 0.6 0.6 1.1 1.2 1.7 1.8 1.8 1.9 3.5 3.8 5.3 5.7l0.5 0.5c2.1 2.2 4.2 4.4 6.4 6.5s4.3 4.3 6.5 6.4l0.5 0.5c1.9 1.8 3.8 3.6 5.7 5.3 0.6 0.6 1.2 1.1 1.8 1.7 1.4 1.3 2.8 2.5 4.3 3.8 1.2 1.1 2.4 2.1 3.7 3.2 0.8 0.7 1.6 1.4 2.4 2 1.9 1.6 3.8 3.1 5.7 4.7 0.1 0.1 0.3 0.2 0.4 0.3 21.4 17.2 44.6 32.1 69.3 44.4 0.4 0.2 0.7 0.4 1.1 0.5 2.2 1.1 4.4 2.2 6.6 3.2 0.8 0.4 1.7 0.8 2.5 1.2 1.8 0.8 3.7 1.7 5.5 2.5l3.3 1.5c45.1 19.5 94.6 30.5 146.7 31.2H517.3c52.1-0.7 101.6-11.8 146.7-31.2l3.3-1.5c1.8-0.8 3.7-1.6 5.5-2.5 0.8-0.4 1.7-0.8 2.5-1.2 2.2-1 4.4-2.1 6.6-3.2 0.4-0.2 0.7-0.4 1.1-0.5 24.8-12.3 48-27.3 69.3-44.4 0.1-0.1 0.3-0.2 0.4-0.3 1.9-1.5 3.8-3.1 5.7-4.7 0.8-0.7 1.6-1.3 2.4-2 1.2-1 2.5-2.1 3.7-3.2 1.4-1.2 2.8-2.5 4.3-3.8 0.6-0.6 1.2-1.1 1.8-1.7 1.9-1.8 3.8-3.5 5.7-5.3l0.5-0.5c2.2-2.1 4.4-4.2 6.5-6.4s4.3-4.3 6.4-6.5l0.5-0.5c1.8-1.9 3.6-3.8 5.3-5.7 0.6-0.6 1.1-1.2 1.7-1.8 1.3-1.4 2.5-2.8 3.8-4.3 1.1-1.2 2.1-2.4 3.2-3.7 0.7-0.8 1.4-1.6 2-2.4 1.6-1.9 3.1-3.8 4.7-5.7 0.1-0.1 0.2-0.3 0.3-0.4 17.2-21.4 32.1-44.6 44.4-69.3 0.2-0.4 0.4-0.7 0.5-1.1 1.1-2.2 2.2-4.4 3.2-6.6 0.4-0.8 0.8-1.7 1.2-2.5 0.8-1.8 1.7-3.7 2.5-5.5l1.5-3.3C884 618.6 895 569.1 895.7 517v-0.4-4.9-4.9-0.4c-0.2-12.5-0.9-24.8-2.3-37l-190.8 21.5z" fill="#67A9FF"/>
  <path d="M893.7 469.7c1.3 12.2 2.1 24.6 2.3 37V517.3c-0.7 50-10.8 98.4-30.1 144.1-0.4 0.9-0.8 1.7-1.1 2.6l-1.5 3.3c-0.8 1.8-1.7 3.7-2.5 5.5-0.4 0.8-0.8 1.7-1.2 2.5-1 2.2-2.1 4.4-3.2 6.6-0.2 0.4-0.4 0.7-0.5 1.1-12.3 24.7-27.2 47.9-44.4 69.3-0.1 0.1-0.2 0.3-0.3 0.4-1.5 1.9-3.1 3.8-4.7 5.7-0.7 0.8-1.3 1.6-2 2.4-1 1.2-2.1 2.5-3.2 3.7-1.2 1.4-2.5 2.8-3.8 4.3-0.6 0.6-1.1 1.2-1.7 1.8-1.8 1.9-3.5 3.8-5.3 5.7l-0.5 0.5c-4.2 4.4-8.5 8.7-12.9 12.9l-0.5 0.5c-1.9 1.8-3.8 3.6-5.7 5.3-0.6 0.6-1.2 1.1-1.8 1.7-1.4 1.3-2.8 2.5-4.3 3.8-1.2 1.1-2.4 2.1-3.7 3.2-0.8 0.7-1.6 1.4-2.4 2-1.9 1.6-3.8 3.1-5.7 4.7-0.1 0.1-0.3 0.2-0.4 0.3-21.5 17.3-44.7 32.2-69.3 44.4-0.4 0.2-0.7 0.4-1.1 0.5-2.2 1.1-4.4 2.2-6.6 3.2-0.8 0.4-1.7 0.8-2.5 1.2-1.8 0.8-3.7 1.7-5.5 2.5l-3.3 1.5c-0.9 0.4-1.7 0.8-2.6 1.1-45.7 19.3-94.1 29.4-144.1 30.1H507c-50-0.7-98.4-10.8-144.1-30.1-0.9-0.4-1.7-0.8-2.6-1.1L357 863c-1.8-0.8-3.7-1.7-5.5-2.5-0.8-0.4-1.7-0.8-2.5-1.2-2.2-1-4.4-2.1-6.6-3.2-0.4-0.2-0.7-0.4-1.1-0.5-24.7-12.3-47.9-27.2-69.3-44.4-0.1-0.1-0.3-0.2-0.4-0.3-1.9-1.5-3.8-3.1-5.7-4.7-0.8-0.7-1.6-1.3-2.4-2-1.2-1-2.5-2.1-3.7-3.2-1.4-1.2-2.8-2.5-4.3-3.8-0.6-0.6-1.2-1.1-1.8-1.7-1.9-1.8-3.8-3.5-5.7-5.3l-0.5-0.5c-4.4-4.2-8.7-8.5-12.9-12.9l-0.5-0.5c-1.8-1.9-3.6-3.8-5.3-5.7-0.6-0.6-1.1-1.2-1.7-1.8-1.3-1.4-2.5-2.8-3.8-4.3-1.1-1.2-2.1-2.4-3.2-3.7-0.7-0.8-1.4-1.6-2-2.4-1.6-1.9-3.1-3.8-4.7-5.7-0.1-0.1-0.2-0.3-0.4-0.4-17.3-21.5-32.2-44.6-44.4-69.3-0.2-0.4-0.4-0.7-0.5-1.1-1.1-2.2-2.2-4.4-3.2-6.6-0.4-0.8-0.8-1.7-1.2-2.5-0.8-1.8-1.7-3.7-2.5-5.5l-1.5-3.3c-0.4-0.9-0.8-1.7-1.1-2.6-19.3-45.7-29.4-94.1-30.1-144.1v-0.4-4.9-4.9-0.4c0.7-50 10.8-98.4 30.1-144.1 0.4-0.9 0.8-1.7 1.1-2.6l1.5-3.3c0.8-1.8 1.7-3.7 2.5-5.5 0.4-0.8 0.8-1.7 1.2-2.5 1-2.2 2.1-4.4 3.2-6.6 0.2-0.4 0.4-0.7 0.5-1.1 12.3-24.7 27.2-47.9 44.4-69.3 0.1-0.1 0.2-0.3 0.4-0.4 1.5-1.9 3.1-3.8 4.7-5.7 0.7-0.8 1.3-1.6 2-2.4 1-1.2 2.1-2.5 3.2-3.7 1.2-1.4 2.5-2.8 3.8-4.3 0.6-0.6 1.1-1.2 1.7-1.8 1.8-1.9 3.5-3.8 5.3-5.7l0.5-0.5c4.2-4.4 8.5-8.7 12.9-12.9l0.5-0.5c1.9-1.8 3.8-3.6 5.7-5.3 0.6-0.6 1.2-1.1 1.8-1.7 1.4-1.3 2.8-2.5 4.3-3.8 1.2-1.1 2.4-2.1 3.7-3.2 0.8-0.7 1.6-1.4 2.4-2 1.9-1.6 3.8-3.1 5.7-4.7 0.1-0.1 0.3-0.2 0.4-0.3 21.5-17.3 44.7-32.2 69.3-44.4 0.4-0.2 0.7-0.4 1.1-0.5 2.2-1.1 4.4-2.2 6.6-3.2 0.8-0.4 1.7-0.8 2.5-1.2 1.8-0.8 3.7-1.7 5.5-2.5l3.3-1.5c0.9-0.4 1.7-0.8 2.6-1.1C408.6 139.1 457 129 507 128.3H517.6c12.5 0.2 24.8 0.9 37.1 2.3l7.1-63.6c-16.6-2.1-33.1-3-49.8-3C264.6 64 64 264.6 64 512s200.6 448 448 448 448-200.6 448-448c0-16.7-0.9-33.2-2.7-49.4l-63.6 7.1z" fill="#C7F9DD"/>
  <path d="M448 352.1v319.8c0 35.3 28.7 64 64 64s64-28.7 64-64V352.1c0-35.3-28.7-64-64-64s-64 28.6-64 64z" fill="#5BD692"/>
  <path d="M384.1 576h256c35.3 0 64-28.7 64-64s-28.7-64-64-64h-256c-35.3 0-64 28.7-64 64s28.7 64 64 64z" fill="#5BD692"/>
</svg>
