<svg width="320" height="240" viewBox="0 0 320 240" fill="none" xmlns="http://www.w3.org/2000/svg">
  <rect width="320" height="240" rx="28" fill="#0B1727"/>
  <circle cx="250" cy="64" r="42" fill="#14314F"/>
  <circle cx="250" cy="64" r="24" fill="#5BD692" fill-opacity="0.22"/>
  <path d="M160 36L226 60V110C226 155 199 188 160 204C121 188 94 155 94 110V60L160 36Z" fill="url(#paint0_linear_38_5)"/>
  <path d="M159.5 82C142.655 82 129 95.6553 129 112.5C129 129.345 142.655 143 159.5 143C176.345 143 190 129.345 190 112.5C190 95.6553 176.345 82 159.5 82Z" fill="#0B1727"/>
  <path d="M160 92V113L174 124" stroke="#5BD692" stroke-width="10" stroke-linecap="round" stroke-linejoin="round"/>
  <path d="M72 178H136" stroke="#E6596B" stroke-width="10" stroke-linecap="round"/>
  <path d="M220 178H248" stroke="#76C4FF" stroke-width="10" stroke-linecap="round"/>
  <defs>
    <linearGradient id="paint0_linear_38_5" x1="94" y1="36" x2="226" y2="204" gradientUnits="userSpaceOnUse">
      <stop stop-color="#67A9FF"/>
      <stop offset="1" stop-color="#2C69B0"/>
    </linearGradient>
  </defs>
</svg>
