<svg width="64" height="64" viewBox="0 0 1024 1024" xmlns="http://www.w3.org/2000/svg">
  <path d="M211.5 595.5l434.2-434.2c18.4-18.4 48.3-18.4 66.8 0L946.2 395c18.4 18.4 18.4 48.3 0 66.8L545.4 862.6c-18.4 18.4-48.3 18.4-66.8 0L211.5 595.5z" fill="#5BD692"/>
  <path d="M478.6 862.6L77.8 461.9c-18.4-18.4-18.4-48.3 0-66.8l233.7-233.7c18.4-18.4 48.3-18.4 66.8 0l400.8 400.8c18.4 18.4 18.4 48.3 0 66.8L545.4 862.6c-18.5 18.5-48.3 18.5-66.8 0z" fill="#67A9FF"/>
  <path d="M345 729.1L77.8 461.9c-18.4-18.4-18.4-48.3 0-66.8l233.7-233.7c18.4-18.4 48.3-18.4 66.8 0l400.8 400.8L345 729.1z" fill="#2C69B0"/>
  <path d="M294.8 344.9c-9.2-9.2-9.2-24.2 0-33.4L411.3 195c55.5-55.5 145.4-55.5 200.9 0L462.3 344.9c-46.3 46.2-121.3 46.2-167.5 0z" fill="#C7F9DD"/>
</svg>
