<svg width="220" height="180" viewBox="0 0 220 180" fill="none" xmlns="http://www.w3.org/2000/svg">
  <rect width="220" height="180" rx="24" fill="#0B1727"/>
  <path d="M74 40H146V62C146 82.9868 129.987 100 110 100C90.0132 100 74 82.9868 74 62V40Z" fill="url(#paint0_linear_52_2)"/>
  <path d="M74 48H58C49.1634 48 42 55.1634 42 64C42 72.8366 49.1634 80 58 80H72" stroke="#67A9FF" stroke-width="8" stroke-linecap="round"/>
  <path d="M146 48H162C170.837 48 178 55.1634 178 64C178 72.8366 170.837 80 162 80H148" stroke="#67A9FF" stroke-width="8" stroke-linecap="round"/>
  <path d="M98 102H122V126H98V102Z" fill="#5BD692"/>
  <rect x="76" y="126" width="68" height="18" rx="9" fill="#2C69B0"/>
  <circle cx="110" cy="70" r="16" fill="#E8FFF1"/>
  <text x="103" y="77" fill="#1F9461" font-size="18" font-family="Arial" font-weight="700">1</text>
  <defs>
    <linearGradient id="paint0_linear_52_2" x1="74" y1="40" x2="146" y2="100" gradientUnits="userSpaceOnUse">
      <stop stop-color="#67A9FF"/>
      <stop offset="1" stop-color="#2C69B0"/>
    </linearGradient>
  </defs>
</svg>
